<svg width="40" height="40" viewBox="0 0 40 40" fill="none" xmlns="http://www.w3.org/2000/svg">
<path d="M20 0C8.97143 0 0 8.97143 0 20C0 31.0286 8.97143 40 20 40C31.0286 40 40 31.0286 40 20C40 8.97143 31.0286 0 20 0ZM29.8147 14.8286L18.7437 27.8857C18.5007 28.1714 18.1435 28.357 17.7724 28.3857H17.6583C17.3155 28.3857 16.9867 28.2716 16.7297 28.0429L10.3436 22.5717C9.75778 22.0573 9.68635 21.1431 10.2007 20.5573C10.7151 19.9572 11.6149 19.8857 12.2151 20.4001L17.5008 24.9428L27.6289 12.9713C28.1433 12.3712 29.0432 12.2998 29.6433 12.8141C30.2434 13.3145 30.3147 14.2287 29.8147 14.8286Z" fill="#FF5701"/>
</svg>
