<svg width="26" height="29" viewBox="0 0 26 29" fill="none" xmlns="http://www.w3.org/2000/svg">
<path fill-rule="evenodd" clip-rule="evenodd" d="M25.5096 23.9906C25.2337 24.3562 24.9519 24.7219 24.669 25.0891C24.0944 25.8353 23.4991 26.6074 22.951 27.3824C21.9043 28.8639 20.3412 29.2635 18.1711 28.6044C10.8804 26.389 0.182633 12.9214 0.00226251 5.73122C-0.0463557 3.77742 0.688138 2.55463 2.24858 1.99415C2.31488 1.97023 2.37857 1.93825 2.43759 1.89899C2.93651 1.56646 3.94398 1.13724 4.75386 0.791409C5.16386 0.616955 5.55102 0.451859 5.86736 0.303149C6.30623 0.0977596 6.76383 0 7.21076 0C8.37418 0 9.47032 0.660637 10.0051 1.80118L11.6257 5.2619C11.9766 6.01068 12.0133 6.85462 11.7286 7.63927C11.4444 8.42392 10.8756 9.04923 10.1271 9.39938L7.51838 10.6213C7.16661 10.7859 6.96564 11.1629 7.02596 11.5471C7.30623 13.3439 13.1433 20.5783 14.3686 21.0309C14.7349 21.1664 15.1444 21.0426 15.375 20.7285L17.2903 18.1213C17.7799 17.455 18.5032 17.0188 19.3281 16.8926C20.1526 16.7663 20.9739 16.9665 21.6402 17.4558L24.72 19.7179C25.3648 20.1914 25.8279 21.0098 25.9591 21.9071C26.0771 22.7107 25.917 23.4501 25.5096 23.9901L25.5096 23.9906Z" fill="#FF5701"/>
</svg>
