<svg width="26" height="33" viewBox="0 0 26 33" fill="none" xmlns="http://www.w3.org/2000/svg">
<path d="M22.1671 3.80802C19.7028 1.28798 16.4546 0 12.9825 0C9.51043 0 6.26224 1.34418 3.798 3.80802C0.269691 7.39223 -0.906179 12.5444 0.717716 17.3048C3.40577 25.0893 9.79015 30.2416 12.4224 32.0337L13.0385 32.4818L13.5424 32.0895C14.9987 31.0813 22.223 25.7611 25.1911 17.3607L25.2469 17.2486C26.9271 12.4881 25.7509 7.33588 22.1667 3.80777L22.1671 3.80802ZM16.0065 16.8008C15.2225 17.5848 14.1584 18.0329 13.0383 18.0329C11.9184 18.0329 10.8542 17.5848 10.0702 16.8008C8.44627 15.1769 8.44627 12.4884 10.0702 10.8082C10.8542 10.0242 11.9183 9.57616 13.0383 9.57616C14.1583 9.57616 15.2225 10.0242 16.0065 10.8082C17.6304 12.4321 17.6304 15.1206 16.0065 16.8008Z" fill="#FF5701"/>
</svg>
