<svg width="37" height="37" viewBox="0 0 37 37" fill="none" xmlns="http://www.w3.org/2000/svg">
<path d="M35.4082 16.9059H20.0952V1.5941C20.0952 0.717237 19.3779 0 18.5011 0C17.6243 0 16.9071 0.71728 16.9071 1.5941V16.9059H1.59407C0.717226 16.9059 0 17.6232 0 18.5C0 19.3768 0.717269 20.0941 1.59407 20.0941H16.9057V35.4059C16.9057 36.2828 17.6229 37 18.4997 37C19.3766 37 20.0938 36.2827 20.0938 35.4059L20.0943 20.0941H35.4059C36.2828 20.0941 37 19.3768 37 18.5C37.0006 17.6231 36.2911 16.9059 35.4065 16.9059H35.4082Z" fill="white"/>
</svg>
