<svg width="27" height="27" viewBox="0 0 27 27" fill="none" xmlns="http://www.w3.org/2000/svg">
<path d="M15.2908 13.5001L26.6151 2.17533C27.1271 1.66334 27.1271 0.895558 26.6151 0.383999C26.1032 -0.128 25.3354 -0.128 24.8239 0.383999L13.4996 11.7087L2.17525 0.383999C1.66327 -0.128 0.895525 -0.128 0.383984 0.383999C-0.127995 0.895997 -0.127995 1.66377 0.383984 2.17533L11.7083 13.5001L0.383984 24.8248C-0.127995 25.3368 -0.127995 26.1046 0.383984 26.6161C0.639755 26.8719 0.959797 27 1.27984 27C1.59988 27 1.91948 26.8719 2.17569 26.6161L13.5 15.2914L24.8243 26.6161C25.0801 26.8719 25.4001 27 25.7202 27C26.0402 27 26.3598 26.8719 26.616 26.6161C27.128 26.1041 27.128 25.3363 26.616 24.8248L15.2908 13.5001Z" fill="#E20000"/>
</svg>
