<svg width="26" height="20" viewBox="0 0 26 20" fill="none" xmlns="http://www.w3.org/2000/svg">
<path d="M14.4624 10.01L25.3174 0.617556C24.9275 0.227627 24.375 0 23.7899 0H2.20996C1.62507 0 1.10502 0.22761 0.714844 0.584883L11.5698 10.0099C12.3825 10.7251 13.6174 10.7575 14.4625 10.0101L14.4624 10.01Z" fill="#FF5701"/>
<path d="M26 2.20971C26 2.07981 26 1.91726 25.9676 1.78714L15.3076 10.9846C14.6577 11.5695 13.8125 11.8622 13 11.8622C12.1875 11.8622 11.375 11.5697 10.6924 10.9846L0.0324183 1.75464C2.17929e-07 1.91718 0 2.04709 0 2.20963V17.2896C0 18.492 0.975056 19.4995 2.20988 19.4995H23.7898C24.9923 19.4995 25.9997 18.5244 25.9997 17.2896L26 2.20971Z" fill="#FF5701"/>
</svg>
