<svg width="52" height="65" viewBox="0 0 52 65" fill="none" xmlns="http://www.w3.org/2000/svg">
<path d="M44.3922 7.55891C39.5007 2.55662 33.053 0 26.1609 0C19.2688 0 12.8211 2.66819 7.92963 7.55891C0.925961 14.6735 -1.40814 24.9007 1.81529 34.35C7.15107 49.8021 19.824 60.0294 25.049 63.5867L26.2719 64.4761L27.2722 63.6976C30.1629 61.6962 44.5032 51.1356 50.3948 34.4609L50.5057 34.2383C53.8409 24.7888 51.506 14.5617 44.3913 7.55841L44.3922 7.55891ZM32.1635 33.3495C30.6072 34.9058 28.495 35.7951 26.2717 35.7951C24.0485 35.7951 21.9362 34.9057 20.3799 33.3495C17.1564 30.1261 17.1564 24.7895 20.3799 21.4543C21.9361 19.898 24.0483 19.0086 26.2717 19.0086C28.4948 19.0086 30.6072 19.8981 32.1635 21.4543C35.3869 24.6777 35.3869 30.0143 32.1635 33.3495Z" fill="#FF5701"/>
</svg>
