<?xml version="1.0" encoding="utf-8"?><svg xmlns="http://www.w3.org/2000/svg" xmlns:xlink="http://www.w3.org/1999/xlink"><symbol viewBox="0 0 26 24" id="arrow-right" xmlns="http://www.w3.org/2000/svg"><path d="M25.06 13.06a1.5 1.5 0 000-2.12l-9.545-9.547a1.5 1.5 0 10-2.122 2.122L21.88 12l-8.486 8.485a1.5 1.5 0 102.122 2.122l9.546-9.546zM0 13.5h24v-3H0v3z"/></symbol><symbol viewBox="0 0 40 40" id="checks" xmlns="http://www.w3.org/2000/svg"><path d="M20 0C8.971 0 0 8.971 0 20s8.971 20 20 20 20-8.971 20-20S31.029 0 20 0zm9.815 14.829L18.744 27.886a1.44 1.44 0 01-.972.5h-.114a1.38 1.38 0 01-.928-.343l-6.386-5.471c-.586-.515-.658-1.429-.143-2.015a1.427 1.427 0 012.014-.157l5.286 4.543L27.629 12.97a1.427 1.427 0 012.014-.157c.6.5.672 1.415.172 2.015z"/></symbol><symbol viewBox="0 0 15 15" id="close" xmlns="http://www.w3.org/2000/svg"><path d="M1.49 1.49l12.02 12.02m0-12.02L1.49 13.51"/></symbol><symbol viewBox="0 0 27 27" id="closes" xmlns="http://www.w3.org/2000/svg"><path d="M15.29 13.5L26.616 2.175a1.237 1.237 0 000-1.791 1.236 1.236 0 00-1.791 0L13.5 11.709 2.175.384a1.236 1.236 0 00-1.791 0 1.237 1.237 0 000 1.791L11.708 13.5.384 24.825a1.237 1.237 0 000 1.791c.256.256.576.384.896.384.32 0 .64-.128.896-.384L13.5 15.291l11.324 11.325c.256.256.576.384.896.384.32 0 .64-.128.896-.384a1.237 1.237 0 000-1.791L15.291 13.5z"/></symbol><symbol viewBox="0 0 12 8" id="down" xmlns="http://www.w3.org/2000/svg"><path d="M1 1.5l5 5 5-5"/></symbol><symbol viewBox="0 0 26 20" id="email" xmlns="http://www.w3.org/2000/svg"><path d="M14.462 10.01L25.317.618A2.163 2.163 0 0023.79 0H2.21C1.625 0 1.105.228.715.585L11.57 10.01a2.181 2.181 0 002.893 0z"/><path d="M26 2.21c0-.13 0-.293-.032-.423l-10.66 9.198a3.473 3.473 0 01-2.308.877 3.535 3.535 0 01-2.308-.877L.032 1.755A2.15 2.15 0 000 2.21v15.08c0 1.202.975 2.21 2.21 2.21h21.58c1.202 0 2.21-.976 2.21-2.21V2.21z"/></symbol><symbol viewBox="0 0 26 20" id="mail" xmlns="http://www.w3.org/2000/svg"><path d="M14.462 10.01L25.317.618A2.163 2.163 0 0023.79 0H2.21C1.625 0 1.105.228.715.585L11.57 10.01a2.181 2.181 0 002.893 0z"/><path d="M26 2.21c0-.13 0-.293-.032-.423l-10.66 9.198a3.473 3.473 0 01-2.308.877 3.535 3.535 0 01-2.308-.877L.032 1.755A2.15 2.15 0 000 2.21v15.08c0 1.202.975 2.21 2.21 2.21h21.58c1.202 0 2.21-.976 2.21-2.21V2.21z"/></symbol><symbol viewBox="0 0 26 33" id="marker" xmlns="http://www.w3.org/2000/svg"><path d="M22.167 3.808C19.703 1.288 16.455 0 12.982 0a12.874 12.874 0 00-9.183 3.808C.27 7.392-.906 12.544.718 17.305c2.688 7.784 9.072 12.937 11.704 14.729l.617.448.503-.392c1.458-1.01 8.681-6.33 11.65-14.73l.055-.111c1.68-4.76.504-9.913-3.08-13.441zm-6.16 12.993a4.196 4.196 0 01-2.969 1.232A4.196 4.196 0 0110.07 16.8c-1.624-1.624-1.624-4.313 0-5.993a4.196 4.196 0 012.968-1.232c1.12 0 2.184.448 2.968 1.232 1.624 1.624 1.624 4.313 0 5.993z"/></symbol><symbol viewBox="0 0 26 33" id="markers" xmlns="http://www.w3.org/2000/svg"><path d="M22.167 3.808C19.703 1.288 16.455 0 12.982 0a12.874 12.874 0 00-9.183 3.808C.27 7.392-.906 12.544.718 17.305c2.688 7.784 9.072 12.937 11.704 14.729l.617.448.503-.392c1.458-1.01 8.681-6.33 11.65-14.73l.055-.111c1.68-4.76.504-9.913-3.08-13.441zm-6.16 12.993a4.196 4.196 0 01-2.969 1.232A4.196 4.196 0 0110.07 16.8c-1.624-1.624-1.624-4.313 0-5.993a4.196 4.196 0 012.968-1.232c1.12 0 2.184.448 2.968 1.232 1.624 1.624 1.624 4.313 0 5.993z"/></symbol><symbol viewBox="0 0 37 5" id="minus" xmlns="http://www.w3.org/2000/svg"><path d="M35.408.906H1.594C.717.906 0 1.623 0 2.5c0 .876.717 1.594 1.594 1.594h33.812a1.593 1.593 0 10.001-3.188h.001z"/></symbol><symbol viewBox="0 0 26 24" id="next" xmlns="http://www.w3.org/2000/svg"><path d="M25.06 13.06a1.5 1.5 0 000-2.12l-9.545-9.547a1.5 1.5 0 10-2.122 2.122L21.88 12l-8.486 8.485a1.5 1.5 0 102.122 2.122l9.546-9.546zM0 13.5h24v-3H0v3z"/></symbol><symbol viewBox="0 0 26 29" id="phone" xmlns="http://www.w3.org/2000/svg"><path fill-rule="evenodd" clip-rule="evenodd" d="M25.51 23.99c-.276.366-.558.732-.841 1.1a69.075 69.075 0 00-1.718 2.292c-1.047 1.482-2.61 1.881-4.78 1.222C10.881 26.39.183 12.921.002 5.731-.046 3.777.688 2.555 2.25 1.994a.883.883 0 00.189-.095c.499-.333 1.506-.762 2.316-1.108.41-.174.797-.34 1.113-.488a3.078 3.078 0 014.138 1.498l1.62 3.46c.352.75.388 1.594.104 2.378a3.088 3.088 0 01-1.602 1.76l-2.609 1.222a.872.872 0 00-.492.926c.28 1.797 6.117 9.031 7.343 9.484a.872.872 0 001.006-.302l1.915-2.608a3.088 3.088 0 012.038-1.228 3.09 3.09 0 012.312.563l3.08 2.262c.645.473 1.108 1.292 1.24 2.19.117.803-.043 1.542-.45 2.082z"/></symbol><symbol viewBox="0 0 46 52" id="play" xmlns="http://www.w3.org/2000/svg"><path d="M43.5 21.67c3.333 1.924 3.333 6.736 0 8.66l-36 20.785c-3.333 1.924-7.5-.481-7.5-4.33V5.215C0 1.366 4.167-1.039 7.5.885l36 20.785z"/></symbol><symbol viewBox="0 0 37 37" id="plus" xmlns="http://www.w3.org/2000/svg"><path d="M35.408 16.906H20.095V1.594C20.095.717 19.378 0 18.501 0c-.877 0-1.594.717-1.594 1.594v15.312H1.594C.717 16.906 0 17.623 0 18.5c0 .877.717 1.594 1.594 1.594h15.312v15.312c0 .877.717 1.594 1.594 1.594.877 0 1.594-.717 1.594-1.594V20.094h15.312a1.593 1.593 0 10.001-3.188h.001z"/></symbol><symbol viewBox="0 0 26 24" id="prev" xmlns="http://www.w3.org/2000/svg"><path d="M.94 13.06a1.5 1.5 0 010-2.12l9.545-9.547a1.5 1.5 0 112.122 2.122L4.12 12l8.486 8.485a1.5 1.5 0 11-2.122 2.122L.94 13.06zM26 13.5H2v-3h24v3z"/></symbol><symbol viewBox="0 0 26 29" id="tel" xmlns="http://www.w3.org/2000/svg"><path fill-rule="evenodd" clip-rule="evenodd" d="M25.51 23.99c-.276.366-.558.732-.841 1.1a69.075 69.075 0 00-1.718 2.292c-1.047 1.482-2.61 1.881-4.78 1.222C10.881 26.39.183 12.921.002 5.731-.046 3.777.688 2.555 2.25 1.994a.883.883 0 00.189-.095c.499-.333 1.506-.762 2.316-1.108.41-.174.797-.34 1.113-.488a3.078 3.078 0 014.138 1.498l1.62 3.46c.352.75.388 1.594.104 2.378a3.088 3.088 0 01-1.602 1.76l-2.609 1.222a.872.872 0 00-.492.926c.28 1.797 6.117 9.031 7.343 9.484a.872.872 0 001.006-.302l1.915-2.608a3.088 3.088 0 012.038-1.228 3.09 3.09 0 012.312.563l3.08 2.262c.645.473 1.108 1.292 1.24 2.19.117.803-.043 1.542-.45 2.082z"/></symbol></svg>