<svg width="18" height="13" viewBox="0 0 18 13" fill="none" xmlns="http://www.w3.org/2000/svg">
<path d="M16.3799 0.00119034C16.1708 0.0128872 15.974 0.104181 15.8302 0.256804L6.15481 10.3156L1.42595 5.95729L1.42624 5.95701C1.2719 5.78555 1.05223 5.68713 0.821441 5.68599C0.590643 5.68513 0.370122 5.78156 0.214358 5.95187C0.0585936 6.12218 -0.0178645 6.35041 0.00353409 6.58007C0.0249304 6.81 0.142464 7.01997 0.327047 7.15863L5.64389 12.0663C5.97112 12.3625 6.47464 12.3456 6.7813 12.0278L17.0059 1.39428C17.2444 1.15407 17.3103 0.791479 17.1713 0.482544C17.0327 0.173864 16.7177 -0.0175612 16.3797 0.00127392L16.3799 0.00119034Z" fill="#FF5701"/>
</svg>
