<svg width="37" height="5" viewBox="0 0 37 5" fill="none" xmlns="http://www.w3.org/2000/svg">
<path d="M35.4082 0.905507H20.0952L20 0.906286C18.8047 0.905361 19.4219 0.906492 18.5 0.905273C17.6232 0.905273 17.793 0.90619 17 0.906286L16.9071 0.905507H1.59407C0.717226 0.905507 0 1.62279 0 2.4996C0 3.37642 0.717269 4.0937 1.59407 4.0937H16.9057C18.0625 4.0937 17.6232 4.0937 18.5 4.0937C19.3768 4.0937 19.3242 4.0937 20.0938 4.0937H35.4059C36.2828 4.0937 37 3.37642 37 2.4996C37.0006 1.62274 36.2911 0.905507 35.4065 0.905507H35.4082Z" fill="white"/>
</svg>
